/* XPM */
static char * net_wired_xpm[] = {
"8 8 2 1",
" 	c None",
".	c #999999",
"        ",
"  ...   ",
"  ...   ",
"....... ",
"....... ",
"....... ",
". . . . ",
"....... "};
