/* XPM */
static char * net_up_03_xpm[] = {
"8 8 2 1",
" 	c None",
".	c #999999",
"    .   ",
"   ...  ",
"  ..... ",
" .......",
"   ...  ",
"   ...  ",
"   ...  ",
"   ...  "};
