/* XPM */
static char * wifi_01_xpm[] = {
"8 8 2 1",
" 	c None",
".	c #999999",
"       .",
"     . .",
"   . . .",
".. . . .",
".. . . .",
"   . . .",
"     . .",
"       ."};
